<svg id="Layer_1" data-name="Layer 1" xmlns="http://www.w3.org/2000/svg" viewBox="0 0 1024 1024"><path d="M981.19,474.31C965.68,463.84,631.87,238.22,511.9,128.53,391.45,238,58.37,463.81,42.9,474.28L0,410.9C113.49,334.08,421.54,119.39,483.32,49.35l28.93-32.8,28.67,33c60.69,69.92,369.29,284.51,483.08,361.3Z" style="fill:#fff"/><rect x="475.84" y="289.28" width="72.36" height="408.76" style="fill:#fff"/><path d="M512,1000c-163.65,0-296.79-133.14-296.79-296.8a296.48,296.48,0,0,1,122.18-240L380,521.66a226.67,226.67,0,0,0-67.25,78.13A221.89,221.89,0,0,0,287.58,703.2C287.58,827,388.27,927.64,512,927.64S736.46,827,736.46,703.2a221.88,221.88,0,0,0-25.18-103.41A226.7,226.7,0,0,0,644,521.66l42.61-58.48a296.45,296.45,0,0,1,122.19,240A296.8,296.8,0,0,1,512,1000Z" style="fill:#fff"/></svg>